STARTFONT 2.1
FONT --Tile7R15H-Regular-R-Normal--18-180-72-72-P-100-FONTSPECIFIC-0
SIZE 18 72 72
FONTBOUNDINGBOX 10 18 0 -3
METRICSSET 2
STARTPROPERTIES 19
FONT_ASCENT 15
FONT_DESCENT 3
PIXEL_SIZE 18
RESOLUTION_X 72
RESOLUTION_Y 72
POINT_SIZE 180
FACE_NAME "Classic/Modern 8-point 15-pitch H"
FOUNDRY ""
FAMILY_NAME "Tile7R15H"
WEIGHT_NAME "Regular"
RELATIVE_WEIGHT 50
SLANT "R"
SPACING "P"
SETWIDTH_NAME "Normal"
RELATIVE_SETWIDTH 50
ADD_STYLE_NAME ""
AVERAGE_WIDTH 100
CHARSET_REGISTRY "FONTSPECIFIC"
CHARSET_ENCODING "0"
ENDPROPERTIES
CHARS 193
STARTCHAR char08
ENCODING 8
SWIDTH 556 0
DWIDTH 10 0
BBX 8 18 1 -3
VVECTOR 5 15
SWIDTH1 0 -1000
DWIDTH1 0 -18
BITMAP 
00
00
00
80
80
80
90
B0
FF
B0
90
80
80
80
00
00
00
00
ENDCHAR
STARTCHAR char09
ENCODING 9
SWIDTH 556 0
DWIDTH 10 0
BBX 8 18 1 -3
VVECTOR 5 15
SWIDTH1 0 -1000
DWIDTH1 0 -18
BITMAP 
00
00
00
01
01
01
09
0D
FF
0D
09
01
01
01
00
00
00
00
ENDCHAR
STARTCHAR char0C
ENCODING 12
SWIDTH 556 0
DWIDTH 10 0
BBX 8 18 1 -3
VVECTOR 5 15
SWIDTH1 0 -1000
DWIDTH1 0 -18
BITMAP 
00
00
00
00
FF
81
81
81
81
81
81
81
99
3C
7E
00
00
00
ENDCHAR
STARTCHAR char0D
ENCODING 13
SWIDTH 556 0
DWIDTH 10 0
BBX 8 18 1 -3
VVECTOR 5 15
SWIDTH1 0 -1000
DWIDTH1 0 -18
BITMAP 
00
00
00
00
3E
01
01
01
01
01
21
61
FE
60
20
00
00
00
ENDCHAR
STARTCHAR char1C
ENCODING 28
SWIDTH 556 0
DWIDTH 10 0
BBX 8 18 1 -3
VVECTOR 5 15
SWIDTH1 0 -1000
DWIDTH1 0 -18
BITMAP 
00
00
00
00
00
00
20
60
FF
60
20
00
00
00
00
00
00
00
ENDCHAR
STARTCHAR char1D
ENCODING 29
SWIDTH 556 0
DWIDTH 10 0
BBX 8 18 1 -3
VVECTOR 5 15
SWIDTH1 0 -1000
DWIDTH1 0 -18
BITMAP 
00
00
00
00
00
00
04
06
FF
06
04
00
00
00
00
00
00
00
ENDCHAR
STARTCHAR char1E
ENCODING 30
SWIDTH 556 0
DWIDTH 10 0
BBX 5 18 2 -3
VVECTOR 5 15
SWIDTH1 0 -1000
DWIDTH1 0 -18
BITMAP 
00
00
00
00
20
70
F8
20
20
20
20
20
20
00
00
00
00
00
ENDCHAR
STARTCHAR char1F
ENCODING 31
SWIDTH 556 0
DWIDTH 10 0
BBX 5 18 2 -3
VVECTOR 5 15
SWIDTH1 0 -1000
DWIDTH1 0 -18
BITMAP 
00
00
00
00
20
20
20
20
20
20
F8
70
20
00
00
00
00
00
ENDCHAR
STARTCHAR char20
ENCODING 32
SWIDTH 556 0
DWIDTH 10 0
BBX 0 0 0 -3
VVECTOR 0 -3
SWIDTH1 0 0
DWIDTH1 0 0
BITMAP 
ENDCHAR
STARTCHAR char21
ENCODING 33
SWIDTH 556 0
DWIDTH 10 0
BBX 1 18 4 -3
VVECTOR 5 15
SWIDTH1 0 -1000
DWIDTH1 0 -18
BITMAP 
00
00
80
80
80
80
80
80
80
80
80
00
00
00
80
00
00
00
ENDCHAR
STARTCHAR char22
ENCODING 34
SWIDTH 556 0
DWIDTH 10 0
BBX 5 18 2 -3
VVECTOR 5 15
SWIDTH1 0 -1000
DWIDTH1 0 -18
BITMAP 
00
00
88
88
88
88
00
00
00
00
00
00
00
00
00
00
00
00
ENDCHAR
STARTCHAR char23
ENCODING 35
SWIDTH 556 0
DWIDTH 10 0
BBX 9 18 0 -3
VVECTOR 5 15
SWIDTH1 0 -1000
DWIDTH1 0 -18
BITMAP 
0000
0000
1000
1100
1100
1100
6180
2200
2200
2200
C300
4400
4400
4400
0400
0000
0000
0000
ENDCHAR
STARTCHAR char24
ENCODING 36
SWIDTH 556 0
DWIDTH 10 0
BBX 7 18 1 -3
VVECTOR 5 15
SWIDTH1 0 -1000
DWIDTH1 0 -18
BITMAP 
10
10
38
44
82
80
40
20
10
08
04
02
82
44
38
10
10
00
ENDCHAR
STARTCHAR char25
ENCODING 37
SWIDTH 556 0
DWIDTH 10 0
BBX 7 18 1 -3
VVECTOR 5 15
SWIDTH1 0 -1000
DWIDTH1 0 -18
BITMAP 
00
00
70
88
88
88
70
06
38
C0
1C
22
22
22
1C
00
00
00
ENDCHAR
STARTCHAR char26
ENCODING 38
SWIDTH 556 0
DWIDTH 10 0
BBX 7 18 1 -3
VVECTOR 5 15
SWIDTH1 0 -1000
DWIDTH1 0 -18
BITMAP 
00
00
78
84
80
80
80
70
80
80
8E
82
82
82
7C
00
00
00
ENDCHAR
STARTCHAR char27
ENCODING 39
SWIDTH 556 0
DWIDTH 10 0
BBX 1 18 4 -3
VVECTOR 5 15
SWIDTH1 0 -1000
DWIDTH1 0 -18
BITMAP 
00
00
80
80
80
80
00
00
00
00
00
00
00
00
00
00
00
00
ENDCHAR
STARTCHAR char28
ENCODING 40
SWIDTH 556 0
DWIDTH 10 0
BBX 5 18 3 -3
VVECTOR 6 15
SWIDTH1 0 -1000
DWIDTH1 0 -18
BITMAP 
00
08
10
20
20
40
40
80
80
80
80
80
40
40
20
20
10
08
ENDCHAR
STARTCHAR char29
ENCODING 41
SWIDTH 556 0
DWIDTH 10 0
BBX 5 18 2 -3
VVECTOR 5 15
SWIDTH1 0 -1000
DWIDTH1 0 -18
BITMAP 
00
80
40
20
20
10
10
08
08
08
08
08
10
10
20
20
40
80
ENDCHAR
STARTCHAR char2A
ENCODING 42
SWIDTH 556 0
DWIDTH 10 0
BBX 7 18 1 -3
VVECTOR 5 15
SWIDTH1 0 -1000
DWIDTH1 0 -18
BITMAP 
00
00
00
00
44
28
D6
28
44
00
00
00
00
00
00
00
00
00
ENDCHAR
STARTCHAR char2B
ENCODING 43
SWIDTH 556 0
DWIDTH 10 0
BBX 7 18 1 -3
VVECTOR 5 15
SWIDTH1 0 -1000
DWIDTH1 0 -18
BITMAP 
00
00
00
00
00
10
10
10
FE
10
10
10
00
00
00
00
00
00
ENDCHAR
STARTCHAR char2C
ENCODING 44
SWIDTH 556 0
DWIDTH 10 0
BBX 3 18 2 -3
VVECTOR 4 15
SWIDTH1 0 -1000
DWIDTH1 0 -18
BITMAP 
00
00
00
00
00
00
00
00
00
00
00
00
00
00
20
40
80
00
ENDCHAR
STARTCHAR char2D
ENCODING 45
SWIDTH 556 0
DWIDTH 10 0
BBX 7 18 1 -3
VVECTOR 5 15
SWIDTH1 0 -1000
DWIDTH1 0 -18
BITMAP 
00
00
00
00
00
00
00
00
FE
00
00
00
00
00
00
00
00
00
ENDCHAR
STARTCHAR char2E
ENCODING 46
SWIDTH 556 0
DWIDTH 10 0
BBX 2 18 2 -3
VVECTOR 3 15
SWIDTH1 0 -1000
DWIDTH1 0 -18
BITMAP 
00
00
00
00
00
00
00
00
00
00
00
00
00
00
C0
00
00
00
ENDCHAR
STARTCHAR char2F
ENCODING 47
SWIDTH 556 0
DWIDTH 10 0
BBX 7 18 1 -3
VVECTOR 5 15
SWIDTH1 0 -1000
DWIDTH1 0 -18
BITMAP 
00
00
02
02
04
04
08
08
10
20
20
40
40
80
80
00
00
00
ENDCHAR
STARTCHAR char30
ENCODING 48
SWIDTH 556 0
DWIDTH 10 0
BBX 7 18 1 -3
VVECTOR 5 15
SWIDTH1 0 -1000
DWIDTH1 0 -18
BITMAP 
00
00
7C
82
82
82
82
82
82
82
82
82
82
82
7C
00
00
00
ENDCHAR
STARTCHAR char31
ENCODING 49
SWIDTH 556 0
DWIDTH 10 0
BBX 4 18 2 -3
VVECTOR 4 15
SWIDTH1 0 -1000
DWIDTH1 0 -18
BITMAP 
00
00
10
10
F0
10
10
10
10
10
10
10
10
10
10
00
00
00
ENDCHAR
STARTCHAR char32
ENCODING 50
SWIDTH 556 0
DWIDTH 10 0
BBX 7 18 1 -3
VVECTOR 5 15
SWIDTH1 0 -1000
DWIDTH1 0 -18
BITMAP 
00
00
38
44
82
82
02
02
04
08
10
20
40
80
FE
00
00
00
ENDCHAR
STARTCHAR char33
ENCODING 51
SWIDTH 556 0
DWIDTH 10 0
BBX 7 18 1 -3
VVECTOR 5 15
SWIDTH1 0 -1000
DWIDTH1 0 -18
BITMAP 
00
00
78
84
02
02
02
04
38
04
02
02
02
84
78
00
00
00
ENDCHAR
STARTCHAR char34
ENCODING 52
SWIDTH 556 0
DWIDTH 10 0
BBX 8 18 1 -3
VVECTOR 5 15
SWIDTH1 0 -1000
DWIDTH1 0 -18
BITMAP 
00
00
06
0A
12
12
22
22
42
42
82
FF
02
02
02
00
00
00
ENDCHAR
STARTCHAR char35
ENCODING 53
SWIDTH 556 0
DWIDTH 10 0
BBX 7 18 1 -3
VVECTOR 5 15
SWIDTH1 0 -1000
DWIDTH1 0 -18
BITMAP 
00
00
FC
80
80
80
80
F8
04
02
02
02
02
84
78
00
00
00
ENDCHAR
STARTCHAR char36
ENCODING 54
SWIDTH 556 0
DWIDTH 10 0
BBX 7 18 1 -3
VVECTOR 5 15
SWIDTH1 0 -1000
DWIDTH1 0 -18
BITMAP 
00
00
3C
40
80
80
B8
C4
82
82
82
82
82
44
38
00
00
00
ENDCHAR
STARTCHAR char37
ENCODING 55
SWIDTH 556 0
DWIDTH 10 0
BBX 7 18 1 -3
VVECTOR 5 15
SWIDTH1 0 -1000
DWIDTH1 0 -18
BITMAP 
00
00
FE
02
04
04
08
08
08
08
10
10
10
10
10
00
00
00
ENDCHAR
STARTCHAR char38
ENCODING 56
SWIDTH 556 0
DWIDTH 10 0
BBX 7 18 1 -3
VVECTOR 5 15
SWIDTH1 0 -1000
DWIDTH1 0 -18
BITMAP 
00
00
7C
82
82
82
82
7C
82
82
82
82
82
82
7C
00
00
00
ENDCHAR
STARTCHAR char39
ENCODING 57
SWIDTH 556 0
DWIDTH 10 0
BBX 7 18 1 -3
VVECTOR 5 15
SWIDTH1 0 -1000
DWIDTH1 0 -18
BITMAP 
00
00
38
44
82
82
82
82
82
46
3A
02
02
04
78
00
00
00
ENDCHAR
STARTCHAR char3A
ENCODING 58
SWIDTH 556 0
DWIDTH 10 0
BBX 2 18 2 -3
VVECTOR 3 15
SWIDTH1 0 -1000
DWIDTH1 0 -18
BITMAP 
00
00
00
00
00
00
00
C0
00
00
00
00
00
00
C0
00
00
00
ENDCHAR
STARTCHAR char3B
ENCODING 59
SWIDTH 556 0
DWIDTH 10 0
BBX 4 18 2 -3
VVECTOR 4 15
SWIDTH1 0 -1000
DWIDTH1 0 -18
BITMAP 
00
00
00
00
00
00
00
30
00
00
00
00
00
00
20
40
80
00
ENDCHAR
STARTCHAR char3C
ENCODING 60
SWIDTH 556 0
DWIDTH 10 0
BBX 6 18 2 -3
VVECTOR 5 15
SWIDTH1 0 -1000
DWIDTH1 0 -18
BITMAP 
00
00
00
00
04
08
10
20
40
80
40
20
10
08
04
00
00
00
ENDCHAR
STARTCHAR char3D
ENCODING 61
SWIDTH 556 0
DWIDTH 10 0
BBX 7 18 1 -3
VVECTOR 5 15
SWIDTH1 0 -1000
DWIDTH1 0 -18
BITMAP 
00
00
00
00
00
00
FE
00
00
00
FE
00
00
00
00
00
00
00
ENDCHAR
STARTCHAR char3E
ENCODING 62
SWIDTH 556 0
DWIDTH 10 0
BBX 6 18 2 -3
VVECTOR 5 15
SWIDTH1 0 -1000
DWIDTH1 0 -18
BITMAP 
00
00
00
00
80
40
20
10
08
04
08
10
20
40
80
00
00
00
ENDCHAR
STARTCHAR char3F
ENCODING 63
SWIDTH 556 0
DWIDTH 10 0
BBX 7 18 1 -3
VVECTOR 5 15
SWIDTH1 0 -1000
DWIDTH1 0 -18
BITMAP 
00
00
38
44
82
82
02
04
08
10
10
00
00
10
10
00
00
00
ENDCHAR
STARTCHAR char40
ENCODING 64
SWIDTH 556 0
DWIDTH 10 0
BBX 7 18 1 -3
VVECTOR 5 15
SWIDTH1 0 -1000
DWIDTH1 0 -18
BITMAP 
00
00
00
7C
82
02
02
1E
22
42
42
42
22
1E
00
00
00
00
ENDCHAR
STARTCHAR char41
ENCODING 65
SWIDTH 556 0
DWIDTH 10 0
BBX 7 18 1 -3
VVECTOR 5 15
SWIDTH1 0 -1000
DWIDTH1 0 -18
BITMAP 
00
00
10
28
28
44
44
44
82
82
FE
82
82
82
82
00
00
00
ENDCHAR
STARTCHAR char42
ENCODING 66
SWIDTH 556 0
DWIDTH 10 0
BBX 7 18 1 -3
VVECTOR 5 15
SWIDTH1 0 -1000
DWIDTH1 0 -18
BITMAP 
00
00
FC
82
82
82
82
FC
82
82
82
82
82
82
FC
00
00
00
ENDCHAR
STARTCHAR char43
ENCODING 67
SWIDTH 556 0
DWIDTH 10 0
BBX 7 18 1 -3
VVECTOR 5 15
SWIDTH1 0 -1000
DWIDTH1 0 -18
BITMAP 
00
00
38
44
82
82
80
80
80
80
80
82
82
44
38
00
00
00
ENDCHAR
STARTCHAR char44
ENCODING 68
SWIDTH 556 0
DWIDTH 10 0
BBX 7 18 1 -3
VVECTOR 5 15
SWIDTH1 0 -1000
DWIDTH1 0 -18
BITMAP 
00
00
F8
84
82
82
82
82
82
82
82
82
82
84
F8
00
00
00
ENDCHAR
STARTCHAR char45
ENCODING 69
SWIDTH 556 0
DWIDTH 10 0
BBX 6 18 2 -3
VVECTOR 5 15
SWIDTH1 0 -1000
DWIDTH1 0 -18
BITMAP 
00
00
FC
80
80
80
80
F8
80
80
80
80
80
80
FC
00
00
00
ENDCHAR
STARTCHAR char46
ENCODING 70
SWIDTH 556 0
DWIDTH 10 0
BBX 6 18 2 -3
VVECTOR 5 15
SWIDTH1 0 -1000
DWIDTH1 0 -18
BITMAP 
00
00
FC
80
80
80
80
F8
80
80
80
80
80
80
80
00
00
00
ENDCHAR
STARTCHAR char47
ENCODING 71
SWIDTH 556 0
DWIDTH 10 0
BBX 7 18 1 -3
VVECTOR 5 15
SWIDTH1 0 -1000
DWIDTH1 0 -18
BITMAP 
00
00
38
44
82
82
80
80
80
8E
82
82
86
4A
32
00
00
00
ENDCHAR
STARTCHAR char48
ENCODING 72
SWIDTH 556 0
DWIDTH 10 0
BBX 7 18 1 -3
VVECTOR 5 15
SWIDTH1 0 -1000
DWIDTH1 0 -18
BITMAP 
00
00
82
82
82
82
82
82
FE
82
82
82
82
82
82
00
00
00
ENDCHAR
STARTCHAR char49
ENCODING 73
SWIDTH 556 0
DWIDTH 10 0
BBX 5 18 2 -3
VVECTOR 5 15
SWIDTH1 0 -1000
DWIDTH1 0 -18
BITMAP 
00
00
F8
20
20
20
20
20
20
20
20
20
20
20
F8
00
00
00
ENDCHAR
STARTCHAR char4A
ENCODING 74
SWIDTH 556 0
DWIDTH 10 0
BBX 7 18 1 -3
VVECTOR 5 15
SWIDTH1 0 -1000
DWIDTH1 0 -18
BITMAP 
00
00
0E
02
02
02
02
02
02
02
02
02
02
84
78
00
00
00
ENDCHAR
STARTCHAR char4B
ENCODING 75
SWIDTH 556 0
DWIDTH 10 0
BBX 8 18 1 -3
VVECTOR 5 15
SWIDTH1 0 -1000
DWIDTH1 0 -18
BITMAP 
00
00
81
82
84
88
90
A0
C0
A0
90
88
84
82
81
00
00
00
ENDCHAR
STARTCHAR char4C
ENCODING 76
SWIDTH 556 0
DWIDTH 10 0
BBX 7 18 2 -3
VVECTOR 6 15
SWIDTH1 0 -1000
DWIDTH1 0 -18
BITMAP 
00
00
80
80
80
80
80
80
80
80
80
80
80
80
FE
00
00
00
ENDCHAR
STARTCHAR char4D
ENCODING 77
SWIDTH 556 0
DWIDTH 10 0
BBX 7 18 1 -3
VVECTOR 5 15
SWIDTH1 0 -1000
DWIDTH1 0 -18
BITMAP 
00
00
82
82
C6
AA
92
92
82
82
82
82
82
82
82
00
00
00
ENDCHAR
STARTCHAR char4E
ENCODING 78
SWIDTH 556 0
DWIDTH 10 0
BBX 7 18 1 -3
VVECTOR 5 15
SWIDTH1 0 -1000
DWIDTH1 0 -18
BITMAP 
00
00
82
C2
C2
A2
A2
92
92
92
8A
8A
86
86
82
00
00
00
ENDCHAR
STARTCHAR char4F
ENCODING 79
SWIDTH 556 0
DWIDTH 10 0
BBX 7 18 1 -3
VVECTOR 5 15
SWIDTH1 0 -1000
DWIDTH1 0 -18
BITMAP 
00
00
38
44
82
82
82
82
82
82
82
82
82
44
38
00
00
00
ENDCHAR
STARTCHAR char50
ENCODING 80
SWIDTH 556 0
DWIDTH 10 0
BBX 7 18 1 -3
VVECTOR 5 15
SWIDTH1 0 -1000
DWIDTH1 0 -18
BITMAP 
00
00
F8
84
82
82
82
84
F8
80
80
80
80
80
80
00
00
00
ENDCHAR
STARTCHAR char51
ENCODING 81
SWIDTH 556 0
DWIDTH 10 0
BBX 7 18 1 -3
VVECTOR 5 15
SWIDTH1 0 -1000
DWIDTH1 0 -18
BITMAP 
00
00
38
44
82
82
82
82
82
82
82
82
82
44
38
08
04
00
ENDCHAR
STARTCHAR char52
ENCODING 82
SWIDTH 556 0
DWIDTH 10 0
BBX 7 18 1 -3
VVECTOR 5 15
SWIDTH1 0 -1000
DWIDTH1 0 -18
BITMAP 
00
00
F8
84
82
82
82
84
F8
84
82
82
82
82
82
00
00
00
ENDCHAR
STARTCHAR char53
ENCODING 83
SWIDTH 556 0
DWIDTH 10 0
BBX 7 18 1 -3
VVECTOR 5 15
SWIDTH1 0 -1000
DWIDTH1 0 -18
BITMAP 
00
00
38
44
82
80
40
20
10
08
04
02
82
44
38
00
00
00
ENDCHAR
STARTCHAR char54
ENCODING 84
SWIDTH 556 0
DWIDTH 10 0
BBX 7 18 1 -3
VVECTOR 5 15
SWIDTH1 0 -1000
DWIDTH1 0 -18
BITMAP 
00
00
FE
10
10
10
10
10
10
10
10
10
10
10
10
00
00
00
ENDCHAR
STARTCHAR char55
ENCODING 85
SWIDTH 556 0
DWIDTH 10 0
BBX 7 18 1 -3
VVECTOR 5 15
SWIDTH1 0 -1000
DWIDTH1 0 -18
BITMAP 
00
00
82
82
82
82
82
82
82
82
82
82
82
44
38
00
00
00
ENDCHAR
STARTCHAR char56
ENCODING 86
SWIDTH 556 0
DWIDTH 10 0
BBX 7 18 1 -3
VVECTOR 5 15
SWIDTH1 0 -1000
DWIDTH1 0 -18
BITMAP 
00
00
82
82
82
82
82
44
44
44
44
28
28
10
10
00
00
00
ENDCHAR
STARTCHAR char57
ENCODING 87
SWIDTH 556 0
DWIDTH 10 0
BBX 7 18 1 -3
VVECTOR 5 15
SWIDTH1 0 -1000
DWIDTH1 0 -18
BITMAP 
00
00
82
82
82
82
82
82
92
92
92
92
AA
44
44
00
00
00
ENDCHAR
STARTCHAR char58
ENCODING 88
SWIDTH 556 0
DWIDTH 10 0
BBX 7 18 1 -3
VVECTOR 5 15
SWIDTH1 0 -1000
DWIDTH1 0 -18
BITMAP 
00
00
82
82
44
44
28
10
10
28
28
44
44
82
82
00
00
00
ENDCHAR
STARTCHAR char59
ENCODING 89
SWIDTH 556 0
DWIDTH 10 0
BBX 7 18 1 -3
VVECTOR 5 15
SWIDTH1 0 -1000
DWIDTH1 0 -18
BITMAP 
00
00
82
82
82
44
44
28
28
10
10
10
10
10
10
00
00
00
ENDCHAR
STARTCHAR char5A
ENCODING 90
SWIDTH 556 0
DWIDTH 10 0
BBX 7 18 1 -3
VVECTOR 5 15
SWIDTH1 0 -1000
DWIDTH1 0 -18
BITMAP 
00
00
FE
02
04
04
08
08
10
20
20
40
40
80
FE
00
00
00
ENDCHAR
STARTCHAR char5B
ENCODING 91
SWIDTH 556 0
DWIDTH 10 0
BBX 5 18 3 -3
VVECTOR 6 15
SWIDTH1 0 -1000
DWIDTH1 0 -18
BITMAP 
00
F8
80
80
80
80
80
80
80
80
80
80
80
80
80
80
80
F8
ENDCHAR
STARTCHAR char5C
ENCODING 92
SWIDTH 556 0
DWIDTH 10 0
BBX 7 18 1 -3
VVECTOR 5 15
SWIDTH1 0 -1000
DWIDTH1 0 -18
BITMAP 
00
00
80
80
40
40
20
20
10
08
08
04
04
02
02
00
00
00
ENDCHAR
STARTCHAR char5D
ENCODING 93
SWIDTH 556 0
DWIDTH 10 0
BBX 5 18 2 -3
VVECTOR 5 15
SWIDTH1 0 -1000
DWIDTH1 0 -18
BITMAP 
00
F8
08
08
08
08
08
08
08
08
08
08
08
08
08
08
08
F8
ENDCHAR
STARTCHAR char5E
ENCODING 94
SWIDTH 556 0
DWIDTH 10 0
BBX 6 18 2 -3
VVECTOR 5 15
SWIDTH1 0 -1000
DWIDTH1 0 -18
BITMAP 
30
48
84
00
00
00
00
00
00
00
00
00
00
00
00
00
00
00
ENDCHAR
STARTCHAR char5F
ENCODING 95
SWIDTH 556 0
DWIDTH 10 0
BBX 10 18 0 -3
VVECTOR 5 15
SWIDTH1 0 -1000
DWIDTH1 0 -18
BITMAP 
0000
0000
0000
0000
0000
0000
0000
0000
0000
0000
0000
0000
0000
0000
0000
0000
0000
FFC0
ENDCHAR
STARTCHAR char60
ENCODING 96
SWIDTH 556 0
DWIDTH 10 0
BBX 3 18 3 -3
VVECTOR 5 15
SWIDTH1 0 -1000
DWIDTH1 0 -18
BITMAP 
80
40
20
00
00
00
00
00
00
00
00
00
00
00
00
00
00
00
ENDCHAR
STARTCHAR char61
ENCODING 97
SWIDTH 556 0
DWIDTH 10 0
BBX 7 18 1 -3
VVECTOR 5 15
SWIDTH1 0 -1000
DWIDTH1 0 -18
BITMAP 
00
00
00
00
00
3C
42
02
02
3E
42
82
82
46
3A
00
00
00
ENDCHAR
STARTCHAR char62
ENCODING 98
SWIDTH 556 0
DWIDTH 10 0
BBX 7 18 1 -3
VVECTOR 5 15
SWIDTH1 0 -1000
DWIDTH1 0 -18
BITMAP 
00
00
80
80
80
B8
C4
82
82
82
82
82
82
C4
B8
00
00
00
ENDCHAR
STARTCHAR char63
ENCODING 99
SWIDTH 556 0
DWIDTH 10 0
BBX 7 18 1 -3
VVECTOR 5 15
SWIDTH1 0 -1000
DWIDTH1 0 -18
BITMAP 
00
00
00
00
00
38
44
82
80
80
80
80
82
44
38
00
00
00
ENDCHAR
STARTCHAR char64
ENCODING 100
SWIDTH 556 0
DWIDTH 10 0
BBX 7 18 1 -3
VVECTOR 5 15
SWIDTH1 0 -1000
DWIDTH1 0 -18
BITMAP 
00
00
02
02
02
3A
46
82
82
82
82
82
82
46
3A
00
00
00
ENDCHAR
STARTCHAR char65
ENCODING 101
SWIDTH 556 0
DWIDTH 10 0
BBX 7 18 1 -3
VVECTOR 5 15
SWIDTH1 0 -1000
DWIDTH1 0 -18
BITMAP 
00
00
00
00
00
38
44
82
82
FE
80
80
80
42
3C
00
00
00
ENDCHAR
STARTCHAR char66
ENCODING 102
SWIDTH 556 0
DWIDTH 10 0
BBX 7 18 1 -3
VVECTOR 5 15
SWIDTH1 0 -1000
DWIDTH1 0 -18
BITMAP 
00
00
1C
22
20
20
20
FC
20
20
20
20
20
20
20
00
00
00
ENDCHAR
STARTCHAR char67
ENCODING 103
SWIDTH 556 0
DWIDTH 10 0
BBX 7 18 1 -3
VVECTOR 5 15
SWIDTH1 0 -1000
DWIDTH1 0 -18
BITMAP 
00
00
00
00
00
3A
46
82
82
82
82
82
82
46
3A
02
82
7C
ENDCHAR
STARTCHAR char68
ENCODING 104
SWIDTH 556 0
DWIDTH 10 0
BBX 7 18 1 -3
VVECTOR 5 15
SWIDTH1 0 -1000
DWIDTH1 0 -18
BITMAP 
00
00
80
80
80
B8
C4
82
82
82
82
82
82
82
82
00
00
00
ENDCHAR
STARTCHAR char69
ENCODING 105
SWIDTH 556 0
DWIDTH 10 0
BBX 7 18 1 -3
VVECTOR 5 15
SWIDTH1 0 -1000
DWIDTH1 0 -18
BITMAP 
00
30
00
00
00
F0
10
10
10
10
10
10
10
10
FE
00
00
00
ENDCHAR
STARTCHAR char6A
ENCODING 106
SWIDTH 556 0
DWIDTH 10 0
BBX 6 18 1 -3
VVECTOR 4 15
SWIDTH1 0 -1000
DWIDTH1 0 -18
BITMAP 
00
0C
00
00
00
1C
04
04
04
04
04
04
04
04
04
04
88
70
ENDCHAR
STARTCHAR char6B
ENCODING 107
SWIDTH 556 0
DWIDTH 10 0
BBX 8 18 1 -3
VVECTOR 5 15
SWIDTH1 0 -1000
DWIDTH1 0 -18
BITMAP 
00
00
80
80
80
82
84
88
90
A0
D0
88
84
82
81
00
00
00
ENDCHAR
STARTCHAR char6C
ENCODING 108
SWIDTH 556 0
DWIDTH 10 0
BBX 7 18 1 -3
VVECTOR 5 15
SWIDTH1 0 -1000
DWIDTH1 0 -18
BITMAP 
00
00
F0
10
10
10
10
10
10
10
10
10
10
10
FE
00
00
00
ENDCHAR
STARTCHAR char6D
ENCODING 109
SWIDTH 556 0
DWIDTH 10 0
BBX 7 18 1 -3
VVECTOR 5 15
SWIDTH1 0 -1000
DWIDTH1 0 -18
BITMAP 
00
00
00
00
00
EC
92
92
92
92
92
82
82
82
82
00
00
00
ENDCHAR
STARTCHAR char6E
ENCODING 110
SWIDTH 556 0
DWIDTH 10 0
BBX 7 18 1 -3
VVECTOR 5 15
SWIDTH1 0 -1000
DWIDTH1 0 -18
BITMAP 
00
00
00
00
00
B8
C4
82
82
82
82
82
82
82
82
00
00
00
ENDCHAR
STARTCHAR char6F
ENCODING 111
SWIDTH 556 0
DWIDTH 10 0
BBX 7 18 1 -3
VVECTOR 5 15
SWIDTH1 0 -1000
DWIDTH1 0 -18
BITMAP 
00
00
00
00
00
38
44
82
82
82
82
82
82
44
38
00
00
00
ENDCHAR
STARTCHAR char70
ENCODING 112
SWIDTH 556 0
DWIDTH 10 0
BBX 7 18 1 -3
VVECTOR 5 15
SWIDTH1 0 -1000
DWIDTH1 0 -18
BITMAP 
00
00
00
00
00
B8
C4
82
82
82
82
82
82
C4
B8
80
80
80
ENDCHAR
STARTCHAR char71
ENCODING 113
SWIDTH 556 0
DWIDTH 10 0
BBX 7 18 1 -3
VVECTOR 5 15
SWIDTH1 0 -1000
DWIDTH1 0 -18
BITMAP 
00
00
00
00
00
3A
46
82
82
82
82
82
82
46
3A
02
02
02
ENDCHAR
STARTCHAR char72
ENCODING 114
SWIDTH 556 0
DWIDTH 10 0
BBX 7 18 1 -3
VVECTOR 5 15
SWIDTH1 0 -1000
DWIDTH1 0 -18
BITMAP 
00
00
00
00
00
E6
28
30
20
20
20
20
20
20
F8
00
00
00
ENDCHAR
STARTCHAR char73
ENCODING 115
SWIDTH 556 0
DWIDTH 10 0
BBX 7 18 1 -3
VVECTOR 5 15
SWIDTH1 0 -1000
DWIDTH1 0 -18
BITMAP 
00
00
00
00
00
7C
82
80
40
30
0C
02
02
82
7C
00
00
00
ENDCHAR
STARTCHAR char74
ENCODING 116
SWIDTH 556 0
DWIDTH 10 0
BBX 8 18 1 -3
VVECTOR 5 15
SWIDTH1 0 -1000
DWIDTH1 0 -18
BITMAP 
00
00
00
10
10
10
FE
10
10
10
10
10
10
08
07
00
00
00
ENDCHAR
STARTCHAR char75
ENCODING 117
SWIDTH 556 0
DWIDTH 10 0
BBX 7 18 1 -3
VVECTOR 5 15
SWIDTH1 0 -1000
DWIDTH1 0 -18
BITMAP 
00
00
00
00
00
82
82
82
82
82
82
82
82
46
3A
00
00
00
ENDCHAR
STARTCHAR char76
ENCODING 118
SWIDTH 556 0
DWIDTH 10 0
BBX 7 18 1 -3
VVECTOR 5 15
SWIDTH1 0 -1000
DWIDTH1 0 -18
BITMAP 
00
00
00
00
00
82
82
82
44
44
44
28
28
10
10
00
00
00
ENDCHAR
STARTCHAR char77
ENCODING 119
SWIDTH 556 0
DWIDTH 10 0
BBX 7 18 1 -3
VVECTOR 5 15
SWIDTH1 0 -1000
DWIDTH1 0 -18
BITMAP 
00
00
00
00
00
82
82
82
82
92
92
92
AA
44
44
00
00
00
ENDCHAR
STARTCHAR char78
ENCODING 120
SWIDTH 556 0
DWIDTH 10 0
BBX 7 18 1 -3
VVECTOR 5 15
SWIDTH1 0 -1000
DWIDTH1 0 -18
BITMAP 
00
00
00
00
00
82
82
44
28
10
10
28
44
82
82
00
00
00
ENDCHAR
STARTCHAR char79
ENCODING 121
SWIDTH 556 0
DWIDTH 10 0
BBX 8 18 0 -3
VVECTOR 4 15
SWIDTH1 0 -1000
DWIDTH1 0 -18
BITMAP 
00
00
00
00
00
41
41
41
41
22
22
22
14
14
08
08
10
E0
ENDCHAR
STARTCHAR char7A
ENCODING 122
SWIDTH 556 0
DWIDTH 10 0
BBX 7 18 1 -3
VVECTOR 5 15
SWIDTH1 0 -1000
DWIDTH1 0 -18
BITMAP 
00
00
00
00
00
FE
02
04
08
10
10
20
40
80
FE
00
00
00
ENDCHAR
STARTCHAR char7B
ENCODING 123
SWIDTH 556 0
DWIDTH 10 0
BBX 7 18 1 -3
VVECTOR 5 15
SWIDTH1 0 -1000
DWIDTH1 0 -18
BITMAP 
00
06
08
10
10
10
10
20
C0
20
10
10
10
10
10
08
06
00
ENDCHAR
STARTCHAR char7C
ENCODING 124
SWIDTH 556 0
DWIDTH 10 0
BBX 1 18 4 -3
VVECTOR 5 15
SWIDTH1 0 -1000
DWIDTH1 0 -18
BITMAP 
00
80
80
80
80
80
80
80
80
80
80
80
80
80
80
80
80
00
ENDCHAR
STARTCHAR char7D
ENCODING 125
SWIDTH 556 0
DWIDTH 10 0
BBX 7 18 2 -3
VVECTOR 6 15
SWIDTH1 0 -1000
DWIDTH1 0 -18
BITMAP 
00
C0
20
10
10
10
10
08
06
08
10
10
10
10
10
20
C0
00
ENDCHAR
STARTCHAR char7E
ENCODING 126
SWIDTH 556 0
DWIDTH 10 0
BBX 7 18 1 -3
VVECTOR 5 15
SWIDTH1 0 -1000
DWIDTH1 0 -18
BITMAP 
72
9C
00
00
00
00
00
00
00
00
00
00
00
00
00
00
00
00
ENDCHAR
STARTCHAR char80
ENCODING 128
SWIDTH 556 0
DWIDTH 10 0
BBX 7 18 1 -3
VVECTOR 5 15
SWIDTH1 0 -1000
DWIDTH1 0 -18
BITMAP 
44
00
00
10
28
28
44
44
44
82
FE
82
82
82
82
00
00
00
ENDCHAR
STARTCHAR char81
ENCODING 129
SWIDTH 556 0
DWIDTH 10 0
BBX 7 18 1 -3
VVECTOR 5 15
SWIDTH1 0 -1000
DWIDTH1 0 -18
BITMAP 
38
44
44
38
44
44
44
82
82
82
FE
82
82
82
82
00
00
00
ENDCHAR
STARTCHAR char82
ENCODING 130
SWIDTH 556 0
DWIDTH 10 0
BBX 7 18 1 -3
VVECTOR 5 15
SWIDTH1 0 -1000
DWIDTH1 0 -18
BITMAP 
00
00
38
44
82
82
80
80
80
80
80
82
82
44
38
10
08
30
ENDCHAR
STARTCHAR char83
ENCODING 131
SWIDTH 556 0
DWIDTH 10 0
BBX 7 18 1 -3
VVECTOR 5 15
SWIDTH1 0 -1000
DWIDTH1 0 -18
BITMAP 
08
10
00
FE
80
80
80
80
FC
80
80
80
80
80
FE
00
00
00
ENDCHAR
STARTCHAR char84
ENCODING 132
SWIDTH 556 0
DWIDTH 10 0
BBX 7 18 1 -3
VVECTOR 5 15
SWIDTH1 0 -1000
DWIDTH1 0 -18
BITMAP 
72
9C
00
00
82
C2
A2
A2
92
92
8A
8A
86
82
82
00
00
00
ENDCHAR
STARTCHAR char85
ENCODING 133
SWIDTH 556 0
DWIDTH 10 0
BBX 7 18 1 -3
VVECTOR 5 15
SWIDTH1 0 -1000
DWIDTH1 0 -18
BITMAP 
44
00
00
38
44
82
82
82
82
82
82
82
82
44
38
00
00
00
ENDCHAR
STARTCHAR char86
ENCODING 134
SWIDTH 556 0
DWIDTH 10 0
BBX 7 18 1 -3
VVECTOR 5 15
SWIDTH1 0 -1000
DWIDTH1 0 -18
BITMAP 
44
00
00
82
82
82
82
82
82
82
82
82
82
44
38
00
00
00
ENDCHAR
STARTCHAR char87
ENCODING 135
SWIDTH 556 0
DWIDTH 10 0
BBX 7 18 1 -3
VVECTOR 5 15
SWIDTH1 0 -1000
DWIDTH1 0 -18
BITMAP 
02
04
08
00
00
3C
42
02
02
3E
42
82
82
46
3A
00
00
00
ENDCHAR
STARTCHAR char88
ENCODING 136
SWIDTH 556 0
DWIDTH 10 0
BBX 7 18 1 -3
VVECTOR 5 15
SWIDTH1 0 -1000
DWIDTH1 0 -18
BITMAP 
20
10
08
00
00
3C
42
02
02
3E
42
82
82
46
3A
00
00
00
ENDCHAR
STARTCHAR char89
ENCODING 137
SWIDTH 556 0
DWIDTH 10 0
BBX 7 18 1 -3
VVECTOR 5 15
SWIDTH1 0 -1000
DWIDTH1 0 -18
BITMAP 
18
24
42
00
00
3C
42
02
02
3E
42
82
82
46
3A
00
00
00
ENDCHAR
STARTCHAR char8A
ENCODING 138
SWIDTH 556 0
DWIDTH 10 0
BBX 7 18 1 -3
VVECTOR 5 15
SWIDTH1 0 -1000
DWIDTH1 0 -18
BITMAP 
00
22
00
00
00
3C
42
02
02
3E
42
82
82
46
3A
00
00
00
ENDCHAR
STARTCHAR char8B
ENCODING 139
SWIDTH 556 0
DWIDTH 10 0
BBX 7 18 1 -3
VVECTOR 5 15
SWIDTH1 0 -1000
DWIDTH1 0 -18
BITMAP 
32
4C
00
00
00
3C
42
02
02
3E
42
82
82
46
3A
00
00
00
ENDCHAR
STARTCHAR char8C
ENCODING 140
SWIDTH 556 0
DWIDTH 10 0
BBX 7 18 1 -3
VVECTOR 5 15
SWIDTH1 0 -1000
DWIDTH1 0 -18
BITMAP 
00
1C
22
22
22
1C
42
02
02
3E
42
82
82
46
3A
00
00
00
ENDCHAR
STARTCHAR char8D
ENCODING 141
SWIDTH 556 0
DWIDTH 10 0
BBX 7 18 1 -3
VVECTOR 5 15
SWIDTH1 0 -1000
DWIDTH1 0 -18
BITMAP 
00
00
00
00
00
38
44
82
80
80
80
80
82
44
38
10
08
70
ENDCHAR
STARTCHAR char8E
ENCODING 142
SWIDTH 556 0
DWIDTH 10 0
BBX 7 18 1 -3
VVECTOR 5 15
SWIDTH1 0 -1000
DWIDTH1 0 -18
BITMAP 
04
08
10
00
00
38
44
82
82
FE
80
80
80
42
3C
00
00
00
ENDCHAR
STARTCHAR char8F
ENCODING 143
SWIDTH 556 0
DWIDTH 10 0
BBX 7 18 1 -3
VVECTOR 5 15
SWIDTH1 0 -1000
DWIDTH1 0 -18
BITMAP 
40
20
10
00
00
38
44
82
82
FE
80
80
80
42
3C
00
00
00
ENDCHAR
STARTCHAR char90
ENCODING 144
SWIDTH 556 0
DWIDTH 10 0
BBX 7 18 1 -3
VVECTOR 5 15
SWIDTH1 0 -1000
DWIDTH1 0 -18
BITMAP 
10
28
44
00
00
38
44
82
82
FE
80
80
80
42
3C
00
00
00
ENDCHAR
STARTCHAR char91
ENCODING 145
SWIDTH 556 0
DWIDTH 10 0
BBX 7 18 1 -3
VVECTOR 5 15
SWIDTH1 0 -1000
DWIDTH1 0 -18
BITMAP 
00
44
00
00
00
38
44
82
82
FE
80
80
80
42
3C
00
00
00
ENDCHAR
STARTCHAR char92
ENCODING 146
SWIDTH 556 0
DWIDTH 10 0
BBX 7 18 1 -3
VVECTOR 5 15
SWIDTH1 0 -1000
DWIDTH1 0 -18
BITMAP 
08
10
20
00
00
F0
10
10
10
10
10
10
10
10
FE
00
00
00
ENDCHAR
STARTCHAR char93
ENCODING 147
SWIDTH 556 0
DWIDTH 10 0
BBX 7 18 1 -3
VVECTOR 5 15
SWIDTH1 0 -1000
DWIDTH1 0 -18
BITMAP 
40
20
10
00
00
F0
10
10
10
10
10
10
10
10
FE
00
00
00
ENDCHAR
STARTCHAR char94
ENCODING 148
SWIDTH 556 0
DWIDTH 10 0
BBX 7 18 1 -3
VVECTOR 5 15
SWIDTH1 0 -1000
DWIDTH1 0 -18
BITMAP 
30
48
84
00
00
F0
10
10
10
10
10
10
10
10
FE
00
00
00
ENDCHAR
STARTCHAR char95
ENCODING 149
SWIDTH 556 0
DWIDTH 10 0
BBX 7 18 1 -3
VVECTOR 5 15
SWIDTH1 0 -1000
DWIDTH1 0 -18
BITMAP 
00
84
00
00
00
F0
10
10
10
10
10
10
10
10
FE
00
00
00
ENDCHAR
STARTCHAR char96
ENCODING 150
SWIDTH 556 0
DWIDTH 10 0
BBX 7 18 1 -3
VVECTOR 5 15
SWIDTH1 0 -1000
DWIDTH1 0 -18
BITMAP 
72
9C
00
00
00
B8
C4
82
82
82
82
82
82
82
82
00
00
00
ENDCHAR
STARTCHAR char97
ENCODING 151
SWIDTH 556 0
DWIDTH 10 0
BBX 7 18 1 -3
VVECTOR 5 15
SWIDTH1 0 -1000
DWIDTH1 0 -18
BITMAP 
04
08
10
00
00
38
44
82
82
82
82
82
82
44
38
00
00
00
ENDCHAR
STARTCHAR char98
ENCODING 152
SWIDTH 556 0
DWIDTH 10 0
BBX 7 18 1 -3
VVECTOR 5 15
SWIDTH1 0 -1000
DWIDTH1 0 -18
BITMAP 
40
20
10
00
00
38
44
82
82
82
82
82
82
44
38
00
00
00
ENDCHAR
STARTCHAR char99
ENCODING 153
SWIDTH 556 0
DWIDTH 10 0
BBX 7 18 1 -3
VVECTOR 5 15
SWIDTH1 0 -1000
DWIDTH1 0 -18
BITMAP 
10
28
44
00
00
38
44
82
82
82
82
82
82
44
38
00
00
00
ENDCHAR
STARTCHAR char9A
ENCODING 154
SWIDTH 556 0
DWIDTH 10 0
BBX 7 18 1 -3
VVECTOR 5 15
SWIDTH1 0 -1000
DWIDTH1 0 -18
BITMAP 
00
44
00
00
00
38
44
82
82
82
82
82
82
44
38
00
00
00
ENDCHAR
STARTCHAR char9B
ENCODING 155
SWIDTH 556 0
DWIDTH 10 0
BBX 7 18 1 -3
VVECTOR 5 15
SWIDTH1 0 -1000
DWIDTH1 0 -18
BITMAP 
00
72
9C
00
00
38
44
82
82
82
82
82
82
44
38
00
00
00
ENDCHAR
STARTCHAR char9C
ENCODING 156
SWIDTH 556 0
DWIDTH 10 0
BBX 7 18 1 -3
VVECTOR 5 15
SWIDTH1 0 -1000
DWIDTH1 0 -18
BITMAP 
04
08
10
00
00
82
82
82
82
82
82
82
82
46
3A
00
00
00
ENDCHAR
STARTCHAR char9D
ENCODING 157
SWIDTH 556 0
DWIDTH 10 0
BBX 7 18 1 -3
VVECTOR 5 15
SWIDTH1 0 -1000
DWIDTH1 0 -18
BITMAP 
20
10
08
00
00
82
82
82
82
82
82
82
82
46
3A
00
00
00
ENDCHAR
STARTCHAR char9E
ENCODING 158
SWIDTH 556 0
DWIDTH 10 0
BBX 7 18 1 -3
VVECTOR 5 15
SWIDTH1 0 -1000
DWIDTH1 0 -18
BITMAP 
10
28
44
00
00
82
82
82
82
82
82
82
82
46
3A
00
00
00
ENDCHAR
STARTCHAR char9F
ENCODING 159
SWIDTH 556 0
DWIDTH 10 0
BBX 7 18 1 -3
VVECTOR 5 15
SWIDTH1 0 -1000
DWIDTH1 0 -18
BITMAP 
00
44
00
00
00
82
82
82
82
82
82
82
82
46
3A
00
00
00
ENDCHAR
STARTCHAR charA0
ENCODING 160
SWIDTH 556 0
DWIDTH 10 0
BBX 7 18 1 -3
VVECTOR 5 15
SWIDTH1 0 -1000
DWIDTH1 0 -18
BITMAP 
00
00
10
10
10
FE
10
10
10
10
10
10
10
10
10
10
00
00
ENDCHAR
STARTCHAR charA1
ENCODING 161
SWIDTH 556 0
DWIDTH 10 0
BBX 5 18 2 -3
VVECTOR 5 15
SWIDTH1 0 -1000
DWIDTH1 0 -18
BITMAP 
00
00
70
88
88
88
70
00
00
00
00
00
00
00
00
00
00
00
ENDCHAR
STARTCHAR charA2
ENCODING 162
SWIDTH 556 0
DWIDTH 10 0
BBX 6 18 2 -3
VVECTOR 5 15
SWIDTH1 0 -1000
DWIDTH1 0 -18
BITMAP 
00
00
10
10
38
44
80
80
80
80
44
38
10
10
00
00
00
00
ENDCHAR
STARTCHAR charA3
ENCODING 163
SWIDTH 556 0
DWIDTH 10 0
BBX 8 18 1 -3
VVECTOR 5 15
SWIDTH1 0 -1000
DWIDTH1 0 -18
BITMAP 
00
00
1C
20
20
20
20
FC
20
20
20
20
20
21
3E
00
00
00
ENDCHAR
STARTCHAR charA4
ENCODING 164
SWIDTH 556 0
DWIDTH 10 0
BBX 7 18 1 -3
VVECTOR 5 15
SWIDTH1 0 -1000
DWIDTH1 0 -18
BITMAP 
00
00
3C
40
40
70
88
84
82
82
42
22
1C
04
04
78
00
00
ENDCHAR
STARTCHAR charA5
ENCODING 165
SWIDTH 556 0
DWIDTH 10 0
BBX 5 18 2 -3
VVECTOR 5 15
SWIDTH1 0 -1000
DWIDTH1 0 -18
BITMAP 
00
00
00
00
00
F8
F8
F8
F8
F8
00
00
00
00
00
00
00
00
ENDCHAR
STARTCHAR charA6
ENCODING 166
SWIDTH 556 0
DWIDTH 10 0
BBX 8 18 1 -3
VVECTOR 5 15
SWIDTH1 0 -1000
DWIDTH1 0 -18
BITMAP 
00
00
63
E2
E2
E2
E2
62
22
22
22
22
22
22
22
22
00
00
ENDCHAR
STARTCHAR charA7
ENCODING 167
SWIDTH 556 0
DWIDTH 10 0
BBX 7 18 1 -3
VVECTOR 5 15
SWIDTH1 0 -1000
DWIDTH1 0 -18
BITMAP 
00
00
7C
82
82
82
82
9C
82
82
82
82
82
82
BC
00
00
00
ENDCHAR
STARTCHAR charA8
ENCODING 168
SWIDTH 556 0
DWIDTH 10 0
BBX 8 18 1 -3
VVECTOR 5 15
SWIDTH1 0 -1000
DWIDTH1 0 -18
BITMAP 
00
00
00
FC
02
01
F1
89
89
F1
89
86
00
00
00
00
00
00
ENDCHAR
STARTCHAR charA9
ENCODING 169
SWIDTH 556 0
DWIDTH 10 0
BBX 7 18 1 -3
VVECTOR 5 15
SWIDTH1 0 -1000
DWIDTH1 0 -18
BITMAP 
00
00
00
F8
04
02
62
82
82
82
82
7C
00
00
00
00
00
00
ENDCHAR
STARTCHAR charAA
ENCODING 170
SWIDTH 556 0
DWIDTH 10 0
BBX 7 18 1 -3
VVECTOR 5 15
SWIDTH1 0 -1000
DWIDTH1 0 -18
BITMAP 
00
00
F2
5E
52
00
00
00
00
00
00
00
00
00
00
00
00
00
ENDCHAR
STARTCHAR charAB
ENCODING 171
SWIDTH 556 0
DWIDTH 10 0
BBX 3 18 4 -3
VVECTOR 6 15
SWIDTH1 0 -1000
DWIDTH1 0 -18
BITMAP 
20
40
80
00
00
00
00
00
00
00
00
00
00
00
00
00
00
00
ENDCHAR
STARTCHAR charAC
ENCODING 172
SWIDTH 556 0
DWIDTH 10 0
BBX 6 18 2 -3
VVECTOR 5 15
SWIDTH1 0 -1000
DWIDTH1 0 -18
BITMAP 
84
00
00
00
00
00
00
00
00
00
00
00
00
00
00
00
00
00
ENDCHAR
STARTCHAR charAD
ENCODING 173
SWIDTH 556 0
DWIDTH 10 0
BBX 7 18 1 -3
VVECTOR 5 15
SWIDTH1 0 -1000
DWIDTH1 0 -18
BITMAP 
00
00
00
08
08
08
FE
10
10
10
FE
20
20
20
00
00
00
00
ENDCHAR
STARTCHAR charAE
ENCODING 174
SWIDTH 556 0
DWIDTH 10 0
BBX 7 18 1 -3
VVECTOR 5 15
SWIDTH1 0 -1000
DWIDTH1 0 -18
BITMAP 
00
00
1E
28
28
48
48
48
8E
F8
88
88
88
88
8E
00
00
00
ENDCHAR
STARTCHAR charAF
ENCODING 175
SWIDTH 556 0
DWIDTH 10 0
BBX 7 18 1 -3
VVECTOR 5 15
SWIDTH1 0 -1000
DWIDTH1 0 -18
BITMAP 
00
00
38
44
82
82
86
8A
92
A2
C2
82
82
44
38
00
00
00
ENDCHAR
STARTCHAR charB0
ENCODING 176
SWIDTH 556 0
DWIDTH 10 0
BBX 8 18 1 -3
VVECTOR 5 15
SWIDTH1 0 -1000
DWIDTH1 0 -18
BITMAP 
00
00
00
00
00
00
66
89
99
91
66
00
00
00
00
00
00
00
ENDCHAR
STARTCHAR charB1
ENCODING 177
SWIDTH 556 0
DWIDTH 10 0
BBX 7 18 1 -3
VVECTOR 5 15
SWIDTH1 0 -1000
DWIDTH1 0 -18
BITMAP 
00
00
00
00
00
10
10
10
FE
10
10
10
00
00
FE
00
00
00
ENDCHAR
STARTCHAR charB2
ENCODING 178
SWIDTH 556 0
DWIDTH 10 0
BBX 7 18 1 -3
VVECTOR 5 15
SWIDTH1 0 -1000
DWIDTH1 0 -18
BITMAP 
00
00
00
00
00
08
10
20
40
20
10
08
00
00
FE
00
00
00
ENDCHAR
STARTCHAR charB3
ENCODING 179
SWIDTH 556 0
DWIDTH 10 0
BBX 7 18 1 -3
VVECTOR 5 15
SWIDTH1 0 -1000
DWIDTH1 0 -18
BITMAP 
00
00
00
00
00
20
10
08
04
08
10
20
00
00
FE
00
00
00
ENDCHAR
STARTCHAR charB4
ENCODING 180
SWIDTH 556 0
DWIDTH 10 0
BBX 7 18 1 -3
VVECTOR 5 15
SWIDTH1 0 -1000
DWIDTH1 0 -18
BITMAP 
00
00
82
82
44
44
28
28
10
10
FE
10
10
10
10
00
00
00
ENDCHAR
STARTCHAR charB5
ENCODING 181
SWIDTH 556 0
DWIDTH 10 0
BBX 8 18 1 -3
VVECTOR 5 15
SWIDTH1 0 -1000
DWIDTH1 0 -18
BITMAP 
00
00
00
00
00
84
84
84
84
84
84
84
84
84
FB
80
80
00
ENDCHAR
STARTCHAR charB6
ENCODING 182
SWIDTH 556 0
DWIDTH 10 0
BBX 7 18 1 -3
VVECTOR 5 15
SWIDTH1 0 -1000
DWIDTH1 0 -18
BITMAP 
00
00
38
04
02
02
3A
46
82
82
82
82
82
44
38
00
00
00
ENDCHAR
STARTCHAR charB7
ENCODING 183
SWIDTH 556 0
DWIDTH 10 0
BBX 7 18 1 -3
VVECTOR 5 15
SWIDTH1 0 -1000
DWIDTH1 0 -18
BITMAP 
00
F8
84
42
40
20
10
10
08
08
10
10
20
40
42
84
F8
00
ENDCHAR
STARTCHAR charB8
ENCODING 184
SWIDTH 556 0
DWIDTH 10 0
BBX 9 18 0 -3
VVECTOR 5 15
SWIDTH1 0 -1000
DWIDTH1 0 -18
BITMAP 
0000
0000
FF80
2200
2200
2200
2200
2200
2200
2200
2200
2200
2200
2200
2200
0000
0000
0000
ENDCHAR
STARTCHAR charB9
ENCODING 185
SWIDTH 556 0
DWIDTH 10 0
BBX 7 18 1 -3
VVECTOR 5 15
SWIDTH1 0 -1000
DWIDTH1 0 -18
BITMAP 
00
00
00
00
00
FE
44
44
44
44
44
44
44
44
44
00
00
00
ENDCHAR
STARTCHAR charBA
ENCODING 186
SWIDTH 556 0
DWIDTH 10 0
BBX 7 18 1 -3
VVECTOR 5 15
SWIDTH1 0 -1000
DWIDTH1 0 -18
BITMAP 
00
0E
10
10
10
10
10
10
10
10
10
10
10
10
10
10
E0
00
ENDCHAR
STARTCHAR charBB
ENCODING 187
SWIDTH 556 0
DWIDTH 10 0
BBX 7 18 1 -3
VVECTOR 5 15
SWIDTH1 0 -1000
DWIDTH1 0 -18
BITMAP 
00
00
3C
42
02
02
3E
42
82
82
46
3A
00
00
FE
00
00
00
ENDCHAR
STARTCHAR charBC
ENCODING 188
SWIDTH 556 0
DWIDTH 10 0
BBX 7 18 1 -3
VVECTOR 5 15
SWIDTH1 0 -1000
DWIDTH1 0 -18
BITMAP 
00
00
38
44
82
82
82
82
82
82
44
38
00
00
FE
00
00
00
ENDCHAR
STARTCHAR charBD
ENCODING 189
SWIDTH 556 0
DWIDTH 10 0
BBX 8 18 1 -3
VVECTOR 5 15
SWIDTH1 0 -1000
DWIDTH1 0 -18
BITMAP 
00
00
3C
42
81
81
81
81
81
42
42
42
24
24
E7
00
00
00
ENDCHAR
STARTCHAR charBE
ENCODING 190
SWIDTH 556 0
DWIDTH 10 0
BBX 7 18 1 -3
VVECTOR 5 15
SWIDTH1 0 -1000
DWIDTH1 0 -18
BITMAP 
00
00
00
00
00
EC
12
12
12
7E
90
90
90
90
6E
00
00
00
ENDCHAR
STARTCHAR charBF
ENCODING 191
SWIDTH 556 0
DWIDTH 10 0
BBX 7 18 1 -3
VVECTOR 5 15
SWIDTH1 0 -1000
DWIDTH1 0 -18
BITMAP 
00
00
00
00
00
38
44
86
8A
92
A2
C2
82
44
38
00
00
00
ENDCHAR
STARTCHAR charC0
ENCODING 192
SWIDTH 556 0
DWIDTH 10 0
BBX 7 18 1 -3
VVECTOR 5 15
SWIDTH1 0 -1000
DWIDTH1 0 -18
BITMAP 
00
00
10
10
00
00
10
10
20
40
80
82
82
44
38
00
00
00
ENDCHAR
STARTCHAR charC1
ENCODING 193
SWIDTH 556 0
DWIDTH 10 0
BBX 1 18 4 -3
VVECTOR 5 15
SWIDTH1 0 -1000
DWIDTH1 0 -18
BITMAP 
00
00
80
80
00
00
00
80
80
80
80
80
80
80
80
00
00
00
ENDCHAR
STARTCHAR charC2
ENCODING 194
SWIDTH 556 0
DWIDTH 10 0
BBX 7 18 1 -3
VVECTOR 5 15
SWIDTH1 0 -1000
DWIDTH1 0 -18
BITMAP 
00
00
00
00
00
00
00
00
FE
02
02
02
00
00
00
00
00
00
ENDCHAR
STARTCHAR charC3
ENCODING 195
SWIDTH 556 0
DWIDTH 10 0
BBX 8 18 1 -3
VVECTOR 5 15
SWIDTH1 0 -1000
DWIDTH1 0 -18
BITMAP 
00
0F
08
08
08
08
08
08
08
08
08
08
08
08
E8
18
08
00
ENDCHAR
STARTCHAR charC4
ENCODING 196
SWIDTH 556 0
DWIDTH 10 0
BBX 7 18 1 -3
VVECTOR 5 15
SWIDTH1 0 -1000
DWIDTH1 0 -18
BITMAP 
00
00
00
0E
10
10
10
10
7C
10
10
10
10
10
10
E0
00
00
ENDCHAR
STARTCHAR charC5
ENCODING 197
SWIDTH 556 0
DWIDTH 10 0
BBX 8 18 1 -3
VVECTOR 5 15
SWIDTH1 0 -1000
DWIDTH1 0 -18
BITMAP 
00
00
00
00
00
00
71
8E
00
00
71
8E
00
00
00
00
00
00
ENDCHAR
STARTCHAR charC6
ENCODING 198
SWIDTH 556 0
DWIDTH 10 0
BBX 7 18 1 -3
VVECTOR 5 15
SWIDTH1 0 -1000
DWIDTH1 0 -18
BITMAP 
00
00
10
10
28
28
28
44
44
44
44
82
82
82
FE
00
00
00
ENDCHAR
STARTCHAR charC7
ENCODING 199
SWIDTH 556 0
DWIDTH 10 0
BBX 7 18 1 -3
VVECTOR 5 15
SWIDTH1 0 -1000
DWIDTH1 0 -18
BITMAP 
00
00
00
00
00
22
44
88
44
22
00
00
00
00
00
00
00
00
ENDCHAR
STARTCHAR charC8
ENCODING 200
SWIDTH 556 0
DWIDTH 10 0
BBX 7 18 1 -3
VVECTOR 5 15
SWIDTH1 0 -1000
DWIDTH1 0 -18
BITMAP 
00
00
00
00
00
88
44
22
44
88
00
00
00
00
00
00
00
00
ENDCHAR
STARTCHAR charC9
ENCODING 201
SWIDTH 556 0
DWIDTH 10 0
BBX 9 18 1 -3
VVECTOR 6 15
SWIDTH1 0 -1000
DWIDTH1 0 -18
BITMAP 
0000
0000
0000
0000
0000
0000
0000
0000
0000
0000
0000
0000
0000
0000
8880
0000
0000
0000
ENDCHAR
STARTCHAR charCA
ENCODING 202
SWIDTH 556 0
DWIDTH 10 0
BBX 0 0 0 -3
VVECTOR 0 -3
SWIDTH1 0 0
DWIDTH1 0 0
BITMAP 
ENDCHAR
STARTCHAR charCB
ENCODING 203
SWIDTH 556 0
DWIDTH 10 0
BBX 7 18 1 -3
VVECTOR 5 15
SWIDTH1 0 -1000
DWIDTH1 0 -18
BITMAP 
08
10
00
00
10
28
28
44
44
44
82
FE
82
82
82
00
00
00
ENDCHAR
STARTCHAR charCC
ENCODING 204
SWIDTH 556 0
DWIDTH 10 0
BBX 7 18 1 -3
VVECTOR 5 15
SWIDTH1 0 -1000
DWIDTH1 0 -18
BITMAP 
32
4C
00
00
10
28
28
44
44
82
82
FE
82
82
82
00
00
00
ENDCHAR
STARTCHAR charCD
ENCODING 205
SWIDTH 556 0
DWIDTH 10 0
BBX 7 18 1 -3
VVECTOR 5 15
SWIDTH1 0 -1000
DWIDTH1 0 -18
BITMAP 
72
9C
00
00
38
44
82
82
82
82
82
82
82
44
38
00
00
00
ENDCHAR
STARTCHAR charCE
ENCODING 206
SWIDTH 556 0
DWIDTH 10 0
BBX 8 18 1 -3
VVECTOR 5 15
SWIDTH1 0 -1000
DWIDTH1 0 -18
BITMAP 
00
00
7F
88
88
88
88
88
8E
88
88
88
88
88
77
00
00
00
ENDCHAR
STARTCHAR charCF
ENCODING 207
SWIDTH 556 0
DWIDTH 10 0
BBX 7 18 1 -3
VVECTOR 5 15
SWIDTH1 0 -1000
DWIDTH1 0 -18
BITMAP 
00
00
00
00
00
6C
92
92
92
92
9E
90
90
92
6C
00
00
00
ENDCHAR
STARTCHAR charD0
ENCODING 208
SWIDTH 556 0
DWIDTH 10 0
BBX 5 18 2 -3
VVECTOR 5 15
SWIDTH1 0 -1000
DWIDTH1 0 -18
BITMAP 
00
00
00
00
00
00
00
00
F8
00
00
00
00
00
00
00
00
00
ENDCHAR
STARTCHAR charD1
ENCODING 209
SWIDTH 556 0
DWIDTH 10 0
BBX 10 18 0 -3
VVECTOR 5 15
SWIDTH1 0 -1000
DWIDTH1 0 -18
BITMAP 
0000
0000
0000
0000
0000
0000
0000
0000
FFC0
0000
0000
0000
0000
0000
0000
0000
0000
0000
ENDCHAR
STARTCHAR charD2
ENCODING 210
SWIDTH 556 0
DWIDTH 10 0
BBX 6 18 2 -3
VVECTOR 5 15
SWIDTH1 0 -1000
DWIDTH1 0 -18
BITMAP 
00
00
44
88
88
88
00
00
00
00
00
00
00
00
00
00
00
00
ENDCHAR
STARTCHAR charD3
ENCODING 211
SWIDTH 556 0
DWIDTH 10 0
BBX 6 18 2 -3
VVECTOR 5 15
SWIDTH1 0 -1000
DWIDTH1 0 -18
BITMAP 
00
00
44
44
44
88
00
00
00
00
00
00
00
00
00
00
00
00
ENDCHAR
STARTCHAR charD4
ENCODING 212
SWIDTH 556 0
DWIDTH 10 0
BBX 2 18 4 -3
VVECTOR 5 15
SWIDTH1 0 -1000
DWIDTH1 0 -18
BITMAP 
00
00
40
80
80
80
00
00
00
00
00
00
00
00
00
00
00
00
ENDCHAR
STARTCHAR charD5
ENCODING 213
SWIDTH 556 0
DWIDTH 10 0
BBX 2 18 4 -3
VVECTOR 5 15
SWIDTH1 0 -1000
DWIDTH1 0 -18
BITMAP 
00
00
40
40
40
80
00
00
00
00
00
00
00
00
00
00
00
00
ENDCHAR
STARTCHAR charD6
ENCODING 214
SWIDTH 556 0
DWIDTH 10 0
BBX 7 18 1 -3
VVECTOR 5 15
SWIDTH1 0 -1000
DWIDTH1 0 -18
BITMAP 
00
00
00
00
10
00
00
00
FE
00
00
00
10
00
00
00
00
00
ENDCHAR
STARTCHAR charD7
ENCODING 215
SWIDTH 556 0
DWIDTH 10 0
BBX 7 18 1 -3
VVECTOR 5 15
SWIDTH1 0 -1000
DWIDTH1 0 -18
BITMAP 
00
00
00
00
10
28
44
82
82
44
28
10
00
00
00
00
00
00
ENDCHAR
STARTCHAR charD8
ENCODING 216
SWIDTH 556 0
DWIDTH 10 0
BBX 8 18 0 -3
VVECTOR 4 15
SWIDTH1 0 -1000
DWIDTH1 0 -18
BITMAP 
00
00
22
00
00
41
41
41
41
22
22
22
14
14
08
08
10
E0
ENDCHAR
STARTCHAR missing
ENCODING -1
SWIDTH 556 0
DWIDTH 10 0
BBX 9 18 0 -3
VVECTOR 5 15
SWIDTH1 0 -1000
DWIDTH1 0 -18
BITMAP 
0000
FF80
8180
8080
8080
F080
F080
E180
C380
C380
C380
C380
FF80
FF80
C380
C380
C380
FF80
ENDCHAR
ENDFONT
